<svg version="1.1" id="Layer_1" xmlns="http://www.w3.org/2000/svg" xmlns:xlink="http://www.w3.org/1999/xlink" x="0px" y="0px"
	 width="100%" viewBox="0 0 222 223" enable-background="new 0 0 222 223" xml:space="preserve">
<path fill="#FCE960" opacity="1.000000" stroke="none" 
	d="
M131.000000,224.000000 
	C87.333336,224.000000 44.166672,224.000000 1.000006,224.000000 
	C1.000004,149.666672 1.000004,75.333351 1.000002,1.000016 
	C74.999992,1.000010 148.999985,1.000010 222.999969,1.000005 
	C222.999985,75.333321 222.999985,149.666641 223.000000,223.999969 
	C192.500000,224.000000 162.000000,224.000000 131.000000,224.000000 
M52.101044,179.829086 
	C49.003414,179.601425 45.895367,179.125229 42.812702,179.254517 
	C41.345570,179.316040 39.926785,180.530396 38.486095,181.222519 
	C39.542519,182.173355 40.598942,183.124191 41.816963,184.220459 
	C41.335094,186.970383 40.807358,189.982071 40.276855,193.009552 
	C44.390194,194.415619 45.687908,192.535828 45.895287,189.414001 
	C46.157349,185.468948 47.522591,182.560379 51.876209,182.908173 
	C51.766102,183.724030 51.756725,184.569275 51.528851,185.350784 
	C50.403301,189.210907 50.935791,192.333649 55.311886,193.574265 
	C59.254456,194.691971 62.919781,192.684601 64.418068,188.786545 
	C64.927696,187.460632 65.467720,186.146423 66.547310,184.927139 
	C66.734650,184.934509 66.921997,184.941895 67.193504,185.637024 
	C67.945328,186.683243 68.697159,187.729477 69.108704,188.302170 
	C68.056862,189.208191 67.020325,190.101013 65.381027,191.202698 
	C65.922173,191.748520 66.463310,192.294342 67.668892,193.240738 
	C71.272430,192.980972 74.875969,192.721207 79.384109,192.396225 
	C81.136795,194.554611 82.623329,194.329544 84.454079,190.726013 
	C85.097481,189.459595 86.750198,188.705963 87.942055,187.718185 
	C88.253853,188.053177 88.565651,188.388168 88.877449,188.723175 
	C88.764000,190.150406 88.650551,191.577637 88.537582,192.998795 
	C93.404816,193.464767 95.281548,189.348175 94.876625,178.013077 
	C91.743973,180.637680 89.399231,182.602158 86.363075,185.145905 
	C86.124420,182.170547 86.010422,180.749298 85.757324,177.593887 
	C83.315269,179.841385 81.331398,180.935379 80.532265,182.598618 
	C79.648628,184.437775 79.849785,186.798111 79.569260,189.004120 
	C77.766899,187.405533 76.403046,186.195877 75.117668,184.432388 
	C75.419891,183.973358 75.722115,183.514328 76.771141,183.002365 
	C77.604584,182.269791 78.438034,181.537231 79.717575,180.412552 
	C74.975677,178.347763 71.344856,178.292282 67.480461,181.264145 
	C67.302635,181.257278 67.124809,181.250427 66.302742,180.791870 
	C63.152557,178.916962 61.336845,179.691391 60.957695,183.443497 
	C60.874672,184.265091 60.828880,185.204193 60.405193,185.853912 
	C59.527958,187.199142 58.408333,188.386307 57.388374,189.638458 
	C57.073048,188.170792 56.498878,186.701370 56.508816,185.235901 
	C56.520855,183.458603 57.026169,181.684647 57.478706,178.932053 
	C55.532745,179.434998 54.278770,179.759109 52.101044,179.829086 
M155.079559,189.592651 
	C155.175415,189.732681 155.271271,189.872726 155.368668,190.841736 
	C156.064545,191.706207 157.037750,193.423630 157.412918,193.301651 
	C160.739670,192.220078 162.066422,187.554825 166.480927,188.120651 
	C166.551941,188.129761 166.807510,186.699158 167.005142,185.814148 
	C165.181824,185.345047 163.603882,184.939072 162.025940,184.533112 
	C162.033829,184.180115 162.041733,183.827118 162.049622,183.474136 
	C164.027771,183.215027 166.005936,182.955917 168.657623,182.789993 
	C169.108673,182.788315 169.559738,182.786636 170.876755,183.063232 
	C171.381577,184.340271 172.287109,185.613388 172.299606,186.895218 
	C172.319580,188.945602 171.746933,191.001755 171.447296,192.912033 
	C175.719238,194.641754 176.166092,192.060715 176.752762,189.499603 
	C177.402573,186.662857 176.695953,182.884598 181.429932,182.674179 
	C181.862778,182.654938 182.211731,180.748566 182.809052,179.162460 
	C174.904099,179.162460 167.926285,179.294373 160.957504,179.100937 
	C157.949905,179.017441 157.253357,180.622543 156.416107,183.200333 
	C156.275208,183.787262 156.134308,184.374207 155.320709,184.732513 
	C153.685364,180.587189 150.842407,178.255615 146.210526,179.084274 
	C142.350967,179.774780 139.481522,181.684509 138.516678,186.690521 
	C136.203720,185.746628 133.890762,184.802750 131.595749,183.866196 
	C134.022171,182.998932 136.110443,182.252533 138.198700,181.506134 
	C131.974182,177.883667 126.720543,179.352753 126.207588,183.487076 
	C125.837044,186.473572 125.788368,189.500000 125.586800,192.654892 
	C131.832214,195.085892 133.538635,194.529190 138.963715,188.705658 
	C141.600449,194.422073 148.262573,195.585342 152.609467,191.113083 
	C153.328125,190.373703 154.180725,189.764511 155.079559,189.592651 
M38.152218,118.499977 
	C38.152500,128.827560 38.136730,139.155167 38.157536,149.482697 
	C38.178810,160.042038 42.436939,164.310867 53.030041,164.315475 
	C91.341713,164.332138 129.653412,164.332321 167.965088,164.314407 
	C178.542572,164.309448 182.837967,160.020554 182.842072,149.480545 
	C182.856995,111.168861 182.857819,72.857162 182.840927,34.545490 
	C182.836243,23.929020 178.662750,19.809338 167.965973,19.806631 
	C129.654297,19.796940 91.342606,19.796663 53.030922,19.807318 
	C42.330761,19.810293 38.164295,23.933506 38.157932,34.546848 
	C38.141350,62.197880 38.152302,89.848930 38.152218,118.499977 
M103.022415,188.951950 
	C102.932579,190.332886 102.842743,191.713821 102.736198,193.351685 
	C108.387520,193.261093 114.090729,195.016479 117.290520,189.482941 
	C118.394775,187.573288 118.551384,183.849625 117.391602,182.144196 
	C114.412842,177.764008 109.540771,179.238068 105.015785,179.479538 
	C104.353928,182.531311 103.756393,185.286438 103.022415,188.951950 
M98.258553,193.537613 
	C99.970772,189.054260 101.682999,184.570923 103.395218,180.087570 
	C102.878174,179.695297 102.361130,179.303024 101.844078,178.910751 
	C100.515038,179.424973 98.281860,179.652878 98.012741,180.502731 
	C96.818474,184.274033 96.126808,188.213318 95.456963,192.126694 
	C95.397186,192.475922 96.801819,193.075790 98.258553,193.537613 
z"/>
<path fill="#2A2927" opacity="1.000000" stroke="none" 
	d="
M38.152245,117.999969 
	C38.152302,89.848930 38.141350,62.197880 38.157932,34.546848 
	C38.164295,23.933506 42.330761,19.810293 53.030922,19.807318 
	C91.342606,19.796663 129.654297,19.796940 167.965973,19.806631 
	C178.662750,19.809338 182.836243,23.929020 182.840927,34.545490 
	C182.857819,72.857162 182.856995,111.168861 182.842072,149.480545 
	C182.837967,160.020554 178.542572,164.309448 167.965088,164.314407 
	C129.653412,164.332321 91.341713,164.332138 53.030041,164.315475 
	C42.436939,164.310867 38.178810,160.042038 38.157536,149.482697 
	C38.136730,139.155167 38.152500,128.827560 38.152245,117.999969 
M92.448074,86.815056 
	C92.814606,82.919273 107.984589,72.254425 111.517288,73.923286 
	C117.211731,76.613373 123.908707,78.966148 127.578728,83.547150 
	C130.147339,86.753334 128.376282,93.436401 128.541763,98.566681 
	C128.547134,98.732918 128.594620,98.934708 128.521057,99.060692 
	C127.969162,100.005714 127.613266,101.298416 126.782738,101.805794 
	C123.716476,103.678955 120.490623,105.290878 116.647949,107.366631 
	C116.647949,102.153954 116.440620,97.832893 116.703720,93.540672 
	C116.992043,88.836739 113.317368,87.467072 110.411003,87.515228 
	C107.492538,87.563591 104.086746,89.087303 104.264984,93.748985 
	C104.570320,101.734955 104.299850,109.741447 104.369232,117.738480 
	C104.412216,122.691811 108.845406,125.468773 113.185135,123.146523 
	C121.407097,118.746857 129.601471,114.281509 137.616516,109.522110 
	C139.087952,108.648361 140.444504,106.280701 140.506302,104.554359 
	C140.804153,96.234161 140.803467,87.891663 140.508331,79.571281 
	C140.446655,77.832207 139.118652,75.446724 137.650040,74.564285 
	C129.803391,69.849464 121.805984,65.363403 113.665459,61.177982 
	C111.975815,60.309265 109.080475,60.304070 107.390648,61.169605 
	C99.392220,65.266457 91.667831,69.894409 83.737610,74.130577 
	C81.197418,75.487503 80.269112,77.130150 80.290794,80.019554 
	C80.419586,97.180153 80.435127,114.342941 80.281258,131.503128 
	C80.253128,134.640656 81.393181,136.290039 84.060074,137.695694 
	C91.719765,141.732880 99.312668,145.907990 106.796822,150.260971 
	C109.397102,151.773361 111.403549,151.864532 114.085785,150.346268 
	C129.882217,141.404892 145.826553,132.724350 161.595917,123.736412 
	C163.095612,122.881638 164.613190,120.522636 164.633484,118.843964 
	C164.851135,100.851944 164.839462,82.855522 164.643875,64.862999 
	C164.626968,63.308155 163.222900,61.117161 161.834412,60.328022 
	C145.908966,51.276859 129.910614,42.349022 113.776375,33.677288 
	C112.027092,32.737099 108.874306,32.810059 107.099731,33.764763 
	C91.115196,42.364323 75.247978,51.186958 59.493053,60.200584 
	C57.907406,61.107758 56.387417,63.695446 56.363327,65.523354 
	C56.130589,83.181702 56.199825,100.844452 56.273926,118.505562 
	C56.279728,119.887741 56.527271,121.913734 57.425232,122.531166 
	C60.617874,124.726364 64.140762,126.441269 68.193710,128.703781 
	C68.193710,125.841629 68.193687,124.021179 68.193710,122.200737 
	C68.193878,105.872253 68.245514,89.543449 68.144081,73.215599 
	C68.126984,70.463631 68.685173,68.658127 71.351120,67.221016 
	C83.517288,60.662689 95.507133,53.776352 107.700562,47.270687 
	C109.220909,46.459522 111.942307,46.525002 113.485367,47.348881 
	C125.529747,53.779705 137.385452,60.562927 149.390778,67.068703 
	C151.909348,68.433540 152.910263,69.983589 152.872620,72.904472 
	C152.709473,85.565269 152.689682,98.231117 152.883347,110.891060 
	C152.931488,114.038437 151.780548,115.640892 149.129120,117.057602 
	C140.905304,121.451752 132.227036,125.306114 124.813576,130.830582 
	C114.642868,138.409714 105.665604,138.145325 95.941315,130.572403 
	C93.566673,128.723129 92.349670,127.259453 92.386154,124.235489 
	C92.532883,112.074203 92.446663,99.910110 92.448074,86.815056 
z"/>
<path fill="#38362A" opacity="1.000000" stroke="none" 
	d="
M65.983788,190.993851 
	C67.020325,190.101013 68.056862,189.208191 69.108704,188.302170 
	C68.697159,187.729477 67.945328,186.683243 67.364594,185.053619 
	C67.694504,183.417572 67.853325,182.364944 68.012146,181.312317 
	C71.344856,178.292282 74.975677,178.347763 79.717575,180.412552 
	C78.438034,181.537231 77.604584,182.269791 76.147324,182.790390 
	C74.480125,182.795776 73.436729,183.013138 72.393341,183.230484 
	C73.275291,183.815720 74.157242,184.400970 75.039185,184.986221 
	C76.403046,186.195877 77.766899,187.405533 79.569260,189.004120 
	C79.849785,186.798111 79.648628,184.437775 80.532265,182.598618 
	C81.331398,180.935379 83.315269,179.841385 85.757324,177.593887 
	C86.010422,180.749298 86.124420,182.170547 86.363075,185.145905 
	C89.399231,182.602158 91.743973,180.637680 94.876625,178.013077 
	C95.281548,189.348175 93.404816,193.464767 88.537582,192.998795 
	C88.650551,191.577637 88.764000,190.150406 88.877449,188.723175 
	C88.565651,188.388168 88.253853,188.053177 87.942055,187.718185 
	C86.750198,188.705963 85.097481,189.459595 84.454079,190.726013 
	C82.623329,194.329544 81.136795,194.554611 79.384109,192.396225 
	C74.875969,192.721207 71.272430,192.980972 67.292717,192.769058 
	C66.605621,191.862869 66.294708,191.428360 65.983788,190.993851 
z"/>
<path fill="#39372A" opacity="1.000000" stroke="none" 
	d="
M167.984085,182.696808 
	C166.005936,182.955917 164.027771,183.215027 162.049622,183.474136 
	C162.041733,183.827118 162.033829,184.180115 162.025940,184.533112 
	C163.603882,184.939072 165.181824,185.345047 167.005142,185.814148 
	C166.807510,186.699158 166.551941,188.129761 166.480927,188.120651 
	C162.066422,187.554825 160.739670,192.220078 157.412918,193.301651 
	C157.037750,193.423630 156.064545,191.706207 155.674286,190.294342 
	C156.320618,187.498184 156.661316,185.249405 157.002014,183.000641 
	C157.253357,180.622543 157.949905,179.017441 160.957504,179.100937 
	C167.926285,179.294373 174.904099,179.162460 182.809052,179.162460 
	C182.211731,180.748566 181.862778,182.654938 181.429932,182.674179 
	C176.695953,182.884598 177.402573,186.662857 176.752762,189.499603 
	C176.166092,192.060715 175.719238,194.641754 171.447296,192.912033 
	C171.746933,191.001755 172.319580,188.945602 172.299606,186.895218 
	C172.287109,185.613388 171.381577,184.340271 170.385483,182.676407 
	C169.257507,182.425323 168.620789,182.561066 167.984085,182.696808 
z"/>
<path fill="#36342A" opacity="1.000000" stroke="none" 
	d="
M139.119690,186.041702 
	C139.481522,181.684509 142.350967,179.774780 146.210526,179.084274 
	C150.842407,178.255615 153.685364,180.587189 155.506012,185.173370 
	C155.451340,186.774536 155.211380,187.934845 154.971420,189.095154 
	C154.180725,189.764511 153.328125,190.373703 152.609467,191.113083 
	C148.262573,195.585342 141.600449,194.422073 139.196091,188.181458 
	C139.325546,187.118744 139.222610,186.580231 139.119690,186.041702 
M149.903091,186.291306 
	C148.825851,185.209213 147.748611,184.127106 146.671371,183.045013 
	C145.742203,184.067947 144.373306,184.962509 144.025131,186.155075 
	C143.754166,187.083237 144.754425,188.382538 145.189682,189.516876 
	C146.708755,188.696838 148.227829,187.876801 149.903091,186.291306 
z"/>
<path fill="#35342A" opacity="1.000000" stroke="none" 
	d="
M103.090637,188.496765 
	C103.756393,185.286438 104.353928,182.531311 105.015785,179.479538 
	C109.540771,179.238068 114.412842,177.764008 117.391602,182.144196 
	C118.551384,183.849625 118.394775,187.573288 117.290520,189.482941 
	C114.090729,195.016479 108.387520,193.261093 102.736198,193.351685 
	C102.842743,191.713821 102.932579,190.332886 103.090637,188.496765 
M108.650291,185.237076 
	C108.442574,186.616257 108.234863,187.995438 108.027153,189.374619 
	C108.385498,189.689285 108.743851,190.003937 109.102203,190.318604 
	C110.563805,189.194244 112.221024,188.235062 113.383560,186.858185 
	C113.804688,186.359421 113.145851,184.012650 112.801476,183.970642 
	C111.516541,183.813889 110.157646,184.263397 108.650291,185.237076 
z"/>
<path fill="#3C3A2C" opacity="1.000000" stroke="none" 
	d="
M138.818176,186.366119 
	C139.222610,186.580231 139.325546,187.118744 139.250336,187.812347 
	C133.538635,194.529190 131.832214,195.085892 125.586800,192.654892 
	C125.788368,189.500000 125.837044,186.473572 126.207588,183.487076 
	C126.720543,179.352753 131.974182,177.883667 138.198700,181.506134 
	C136.110443,182.252533 134.022171,182.998932 131.595749,183.866196 
	C133.890762,184.802750 136.203720,185.746628 138.818176,186.366119 
z"/>
<path fill="#36352A" opacity="1.000000" stroke="none" 
	d="
M65.993851,184.826859 
	C65.467720,186.146423 64.927696,187.460632 64.418068,188.786545 
	C62.919781,192.684601 59.254456,194.691971 55.311886,193.574265 
	C50.935791,192.333649 50.403301,189.210907 51.528851,185.350784 
	C51.756725,184.569275 51.766102,183.724030 52.009586,182.305145 
	C52.436905,181.162476 52.730850,180.622833 53.024792,180.083206 
	C54.278770,179.759109 55.532745,179.434998 57.478706,178.932053 
	C57.026169,181.684647 56.520855,183.458603 56.508816,185.235901 
	C56.498878,186.701370 57.073048,188.170792 57.388378,189.638458 
	C58.408333,188.386307 59.527958,187.199142 60.405193,185.853912 
	C60.828880,185.204193 60.874672,184.265091 60.957695,183.443497 
	C61.336845,179.691391 63.152557,178.916962 66.474213,181.293686 
	C66.428406,182.805954 66.211128,183.816406 65.993851,184.826859 
z"/>
<path fill="#3D3B2C" opacity="1.000000" stroke="none" 
	d="
M52.562920,179.956146 
	C52.730850,180.622833 52.436905,181.162476 52.042786,181.911316 
	C47.522591,182.560379 46.157349,185.468948 45.895287,189.414001 
	C45.687908,192.535828 44.390194,194.415619 40.276855,193.009552 
	C40.807358,189.982071 41.335094,186.970383 41.816963,184.220459 
	C40.598942,183.124191 39.542519,182.173355 38.486095,181.222519 
	C39.926785,180.530396 41.345570,179.316040 42.812702,179.254517 
	C45.895367,179.125229 49.003414,179.601425 52.562920,179.956146 
z"/>
<path fill="#403D2C" opacity="1.000000" stroke="none" 
	d="
M97.892448,193.548431 
	C96.801819,193.075790 95.397186,192.475922 95.456963,192.126694 
	C96.126808,188.213318 96.818474,184.274033 98.012741,180.502731 
	C98.281860,179.652878 100.515038,179.424973 101.844078,178.910751 
	C102.361130,179.303024 102.878174,179.695297 103.395218,180.087570 
	C101.682999,184.570923 99.970772,189.054260 97.892448,193.548431 
z"/>
<path fill="#43402D" opacity="1.000000" stroke="none" 
	d="
M155.025482,189.343903 
	C155.211380,187.934845 155.451340,186.774536 155.842346,185.287689 
	C156.134308,184.374207 156.275208,183.787262 156.709061,183.100494 
	C156.661316,185.249405 156.320618,187.498184 155.673523,189.879852 
	C155.271271,189.872726 155.175415,189.732681 155.025482,189.343903 
z"/>
<path fill="#3C3A2B" opacity="1.000000" stroke="none" 
	d="
M75.078430,184.709305 
	C74.157242,184.400970 73.275291,183.815720 72.393341,183.230484 
	C73.436729,183.013138 74.480125,182.795776 75.773926,182.816849 
	C75.722115,183.514328 75.419891,183.973358 75.078430,184.709305 
z"/>
<path fill="#3C3A2B" opacity="1.000000" stroke="none" 
	d="
M66.270584,184.876999 
	C66.211128,183.816406 66.428406,182.805954 66.796341,181.519547 
	C67.124809,181.250427 67.302635,181.257278 67.746307,181.288239 
	C67.853325,182.364944 67.694504,183.417572 67.322510,184.709747 
	C66.921997,184.941895 66.734650,184.934509 66.270584,184.876999 
z"/>
<path fill="#43402D" opacity="1.000000" stroke="none" 
	d="
M168.320862,182.743408 
	C168.620789,182.561066 169.257507,182.425323 169.952499,182.537262 
	C169.559738,182.786636 169.108673,182.788315 168.320862,182.743408 
z"/>
<path fill="#3C3A2B" opacity="1.000000" stroke="none" 
	d="
M65.682404,191.098267 
	C66.294708,191.428360 66.605621,191.862869 66.960495,192.568771 
	C66.463310,192.294342 65.922173,191.748520 65.682404,191.098267 
z"/>
<path fill="#F6E45F" opacity="1.000000" stroke="none" 
	d="
M92.447296,87.281052 
	C92.446663,99.910110 92.532883,112.074203 92.386154,124.235489 
	C92.349670,127.259453 93.566673,128.723129 95.941315,130.572403 
	C105.665604,138.145325 114.642868,138.409714 124.813576,130.830582 
	C132.227036,125.306114 140.905304,121.451752 149.129120,117.057602 
	C151.780548,115.640892 152.931488,114.038437 152.883347,110.891060 
	C152.689682,98.231117 152.709473,85.565269 152.872620,72.904472 
	C152.910263,69.983589 151.909348,68.433540 149.390778,67.068703 
	C137.385452,60.562927 125.529747,53.779705 113.485367,47.348881 
	C111.942307,46.525002 109.220909,46.459522 107.700562,47.270687 
	C95.507133,53.776352 83.517288,60.662689 71.351120,67.221016 
	C68.685173,68.658127 68.126984,70.463631 68.144081,73.215599 
	C68.245514,89.543449 68.193878,105.872253 68.193710,122.200737 
	C68.193687,124.021179 68.193710,125.841629 68.193710,128.703781 
	C64.140762,126.441269 60.617874,124.726364 57.425232,122.531166 
	C56.527271,121.913734 56.279728,119.887741 56.273926,118.505562 
	C56.199825,100.844452 56.130589,83.181702 56.363327,65.523354 
	C56.387417,63.695446 57.907406,61.107758 59.493053,60.200584 
	C75.247978,51.186958 91.115196,42.364323 107.099731,33.764763 
	C108.874306,32.810059 112.027092,32.737099 113.776375,33.677288 
	C129.910614,42.349022 145.908966,51.276859 161.834412,60.328022 
	C163.222900,61.117161 164.626968,63.308155 164.643875,64.862999 
	C164.839462,82.855522 164.851135,100.851944 164.633484,118.843964 
	C164.613190,120.522636 163.095612,122.881638 161.595917,123.736412 
	C145.826553,132.724350 129.882217,141.404892 114.085785,150.346268 
	C111.403549,151.864532 109.397102,151.773361 106.796822,150.260971 
	C99.312668,145.907990 91.719765,141.732880 84.060074,137.695694 
	C81.393181,136.290039 80.253128,134.640656 80.281258,131.503128 
	C80.435127,114.342941 80.419586,97.180153 80.290794,80.019554 
	C80.269112,77.130150 81.197418,75.487503 83.737610,74.130577 
	C91.667831,69.894409 99.392220,65.266457 107.390648,61.169605 
	C109.080475,60.304070 111.975815,60.309265 113.665459,61.177982 
	C121.805984,65.363403 129.803391,69.849464 137.650040,74.564285 
	C139.118652,75.446724 140.446655,77.832207 140.508331,79.571281 
	C140.803467,87.891663 140.804153,96.234161 140.506302,104.554359 
	C140.444504,106.280701 139.087952,108.648361 137.616516,109.522110 
	C129.601471,114.281509 121.407097,118.746857 113.185135,123.146523 
	C108.845406,125.468773 104.412216,122.691811 104.369232,117.738480 
	C104.299850,109.741447 104.570320,101.734955 104.264984,93.748985 
	C104.086746,89.087303 107.492538,87.563591 110.411003,87.515228 
	C113.317368,87.467072 116.992043,88.836739 116.703720,93.540672 
	C116.440620,97.832893 116.647949,102.153954 116.647949,107.366631 
	C120.490623,105.290878 123.716476,103.678955 126.782738,101.805794 
	C127.613266,101.298416 127.969162,100.005714 128.521057,99.060692 
	C128.594620,98.934708 128.547134,98.732918 128.541763,98.566681 
	C128.376282,93.436401 130.147339,86.753334 127.578728,83.547150 
	C123.908707,78.966148 117.211731,76.613373 111.517288,73.923286 
	C107.984589,72.254425 92.814606,82.919273 92.447296,87.281052 
z"/>
<path fill="#E7D75B" opacity="1.000000" stroke="none" 
	d="
M149.824997,186.674042 
	C148.227829,187.876801 146.708755,188.696838 145.189697,189.516876 
	C144.754425,188.382538 143.754166,187.083237 144.025131,186.155075 
	C144.373306,184.962509 145.742203,184.067947 146.671371,183.045013 
	C147.748611,184.127106 148.825851,185.209213 149.824997,186.674042 
z"/>
<path fill="#DDCD57" opacity="1.000000" stroke="none" 
	d="
M108.738396,184.861267 
	C110.157646,184.263397 111.516541,183.813889 112.801476,183.970642 
	C113.145851,184.012650 113.804688,186.359421 113.383560,186.858185 
	C112.221024,188.235062 110.563805,189.194244 109.102203,190.318604 
	C108.743851,190.003937 108.385498,189.689285 108.027153,189.374619 
	C108.234863,187.995438 108.442574,186.616257 108.738396,184.861267 
z"/>
</svg>